<?xml version="1.0" encoding="UTF-8" standalone="no"?>
<!DOCTYPE svg PUBLIC "-//W3C//DTD SVG 1.1//EN" "http://www.w3.org/Graphics/SVG/1.1/DTD/svg11.dtd">
<svg width="100%" height="100%" viewBox="0 0 21 22" version="1.1" xmlns="http://www.w3.org/2000/svg" xmlns:xlink="http://www.w3.org/1999/xlink" xml:space="preserve" xmlns:serif="http://www.serif.com/" style="fill-rule:evenodd;clip-rule:evenodd;stroke-linejoin:round;stroke-miterlimit:2;">
    <g transform="matrix(1,0,0,1,-1601,-153)">
        <g transform="matrix(0.1575,0,0,0.1575,1600.81,153.294)">
            <path d="M94.106,80.702C110.432,57.65 104.972,25.728 81.919,9.407C58.866,-6.915 26.945,-1.459 10.623,21.598C-5.698,44.651 -0.242,76.568 22.815,92.89C39.269,104.539 61.023,105.436 78.378,95.187L116.087,132.67C120.158,136.956 126.933,137.127 131.219,133.056C135.505,128.988 135.676,122.214 131.609,117.928C131.48,117.791 131.355,117.666 131.219,117.538L94.106,80.702ZM52.334,84.197C34.117,84.201 19.348,69.443 19.336,51.226C19.332,33.009 34.09,18.24 52.31,18.232C70.504,18.225 85.265,32.959 85.3,51.152C85.332,69.373 70.582,84.166 52.357,84.197L52.334,84.197Z" style="fill-rule:nonzero;"/>
        </g>
    </g>
</svg>
