<?xml version="1.0" encoding="UTF-8" standalone="no"?>
<!DOCTYPE svg PUBLIC "-//W3C//DTD SVG 1.1//EN" "http://www.w3.org/Graphics/SVG/1.1/DTD/svg11.dtd">
<svg width="100%" height="100%" viewBox="0 0 47 68" version="1.1" xmlns="http://www.w3.org/2000/svg" xmlns:xlink="http://www.w3.org/1999/xlink" xml:space="preserve" xmlns:serif="http://www.serif.com/" style="fill-rule:evenodd;clip-rule:evenodd;stroke-linejoin:round;stroke-miterlimit:2;">
    <g transform="matrix(1,0,0,1,-312,-320)">
        <g transform="matrix(1,0,0,1,-40,-33)">
            <g transform="matrix(0.127445,0,0,0.127445,343.144,354.374)">
                <path d="M425.932,459.851L425.932,503.172C425.932,508.05 421.982,512 417.105,512L94.898,512C90.02,512 86.07,508.05 86.07,503.172L86.07,459.851C86.07,426.538 105.877,397.837 134.357,384.894C122.737,375.648 105.025,363.221 92.139,336.486C74.191,299.302 77.263,255.435 100.128,221.098C112.553,202.45 119.174,180.557 119.174,158.157L119.174,110.345C119.174,49.401 168.575,0 229.518,0L282.484,0C343.427,0 392.829,49.401 392.829,110.345C392.829,160.979 391.592,170.894 397.695,191.029C406.307,219.499 417.683,223.021 426.451,251.994C440.234,297.538 424.988,347.208 387.422,377.114L377.645,384.894C406.125,397.837 425.932,426.538 425.932,459.851Z" style="fill:rgb(255,223,186);fill-rule:nonzero;stroke:black;stroke-width:7.85px;"/>
                <path d="M425.932,459.851L425.932,503.172C425.932,508.047 421.98,512 417.105,512L94.898,512C90.023,512 86.07,508.047 86.07,503.172L86.07,459.851C86.07,414.431 122.891,377.567 168.354,377.567C175.118,377.567 181.54,376.099 187.311,373.473L187.587,374.069L250.598,422.85C253.779,425.313 258.223,425.313 261.406,422.85L324.415,374.069L324.691,373.473C330.462,376.099 336.884,377.567 343.648,377.567C388.935,377.567 425.932,414.255 425.932,459.851Z" style="fill:rgb(255,135,36);fill-rule:nonzero;stroke:black;stroke-width:7.85px;"/>
                <path d="M356.887,161.388C361.574,161.655 365.242,165.506 365.242,170.2L365.242,223.04C365.242,268.579 337.38,307.608 297.767,324.006C226.134,353.74 146.76,300.917 146.76,223.04L146.76,170.968C146.76,165.794 151.191,161.706 156.344,162.173C209.295,166.974 261.439,153.602 305.225,124.105C310.205,120.75 317.062,123.235 318.634,129.031C324.081,149.107 338.936,160.365 356.887,161.388Z" style="fill:rgb(255,235,210);fill-rule:nonzero;stroke:black;stroke-width:7.85px;"/>
                <path d="M387.422,377.114L377.645,384.894C367.284,380.193 355.775,377.567 343.648,377.567C318.457,377.567 297.932,357.225 297.932,331.95L297.932,324.414L297.767,324.006C337.38,307.608 365.242,268.579 365.242,223.04L365.242,170.2C365.242,165.506 361.574,161.655 356.887,161.388C339.047,160.372 324.116,149.236 318.634,129.032C317.062,123.236 310.205,120.751 305.225,124.106C261.468,153.583 209.327,166.977 156.344,162.174C151.191,161.707 146.76,165.795 146.76,170.969L146.76,223.041C146.76,268.58 174.622,307.609 214.236,324.007L214.07,324.415L214.07,331.951C214.07,357.222 193.55,377.568 168.354,377.568C156.227,377.568 144.718,380.194 134.357,384.895L124.58,377.116C77.12,339.298 66.552,271.521 100.128,221.099C112.553,202.451 119.174,180.558 119.174,158.158L119.174,110.345C119.174,49.404 168.577,0 229.518,0L282.484,0C343.425,0 392.829,49.404 392.829,110.345L392.829,158.157C392.829,180.531 399.449,202.45 411.874,221.098C445.572,271.704 434.702,339.474 387.422,377.114Z" style="fill:rgb(66,67,77);fill-rule:nonzero;stroke:black;stroke-width:7.85px;"/>
            </g>
        </g>
    </g>
</svg>
