<?xml version="1.0" encoding="UTF-8" standalone="no"?>
<!DOCTYPE svg PUBLIC "-//W3C//DTD SVG 1.1//EN" "http://www.w3.org/Graphics/SVG/1.1/DTD/svg11.dtd">
<svg width="100%" height="100%" viewBox="0 0 47 70" version="1.1" xmlns="http://www.w3.org/2000/svg" xmlns:xlink="http://www.w3.org/1999/xlink" xml:space="preserve" xmlns:serif="http://www.serif.com/" style="fill-rule:evenodd;clip-rule:evenodd;stroke-linejoin:round;stroke-miterlimit:2;">
    <g transform="matrix(1,0,0,1,-662,-319)">
        <g transform="matrix(1,0,0,1,310,-33)">
            <g transform="matrix(0.131602,0,0,0.131602,342.08,353.31)">
                <path d="M425.911,459.857L425.911,503.173C425.911,508.05 421.961,512 417.084,512L94.916,512C90.039,512 86.089,508.05 86.089,503.173L86.089,459.857C86.089,414.412 122.929,377.594 168.386,377.583C184.45,377.572 198.595,369.308 206.737,356.775C214.917,344.203 214.074,333.272 214.074,324.436L214.24,324.028C174.631,307.633 146.772,268.609 146.772,223.075L146.772,219.621C131.044,219.621 119.189,207.193 119.189,192.546L119.189,146.692C118.836,130.727 119.564,74.425 160.232,35.224C207.52,-10.354 282.457,-6.624 336.741,17.759C338.506,18.553 338.451,21.08 336.663,21.819L322.508,27.645C320.389,28.516 320.842,31.639 323.115,31.881L329.988,32.621C362.9,36.14 393.473,54.014 412.428,83.759C412.936,84.565 412.792,85.789 412.141,86.484C400.446,98.853 393.914,115.27 393.914,132.338L393.914,192.546C393.914,207.496 381.789,219.621 366.839,219.621L365.228,219.621L365.228,223.075C365.228,268.609 337.369,307.633 297.76,324.028L297.926,324.436C297.926,333.017 297.014,344.098 305.263,356.775C313.405,369.308 327.55,377.572 343.614,377.583C389.071,377.594 425.911,414.412 425.911,459.857Z" style="fill:rgb(255,223,186);fill-rule:nonzero;stroke:black;stroke-width:7.6px;"/>
                <path d="M425.911,459.857L425.911,503.173C425.911,508.048 421.958,512 417.084,512L94.916,512C90.042,512 86.089,508.048 86.089,503.173L86.089,459.857C86.089,414.412 122.935,377.6 168.38,377.583C184.449,377.578 198.597,369.304 206.737,356.775C235.152,381.05 276.832,381.064 305.263,356.775C313.402,369.304 327.551,377.578 343.62,377.583C389.065,377.6 425.911,414.412 425.911,459.857Z" style="fill:rgb(96,237,174);fill-rule:nonzero;stroke:black;stroke-width:7.6px;"/>
                <path d="M412.424,83.765C412.936,84.569 412.792,85.787 412.138,86.48C400.446,98.857 393.914,115.269 393.914,132.338L393.914,192.546C393.914,206.214 383.617,219.621 365.228,219.621L365.228,151.47C365.228,122.221 341.518,98.511 312.269,98.511L199.731,98.511C170.482,98.511 146.772,122.221 146.772,151.47L146.772,219.621C131.044,219.621 119.189,207.193 119.189,192.546L119.189,146.692C118.836,130.727 119.564,74.425 160.232,35.224C207.517,-10.355 282.462,-6.623 336.736,17.762C338.501,18.556 338.455,21.083 336.664,21.82L322.508,27.648C320.392,28.52 320.837,31.639 323.112,31.882L329.988,32.621C362.906,36.137 393.471,54.011 412.424,83.765Z" style="fill:rgb(66,67,77);fill-rule:nonzero;stroke:black;stroke-width:7.6px;"/>
                <path d="M365.228,223.075C365.228,283.422 316.298,332.303 256,332.303C199.188,332.303 146.772,288.136 146.772,219.621L146.772,151.47C146.772,122.221 170.482,98.511 199.731,98.511L312.269,98.511C341.518,98.511 365.228,122.221 365.228,151.47L365.228,223.075Z" style="fill:rgb(255,235,210);fill-rule:nonzero;stroke:black;stroke-width:7.6px;"/>
            </g>
        </g>
    </g>
</svg>
